<?xml version="1.0" encoding="UTF-8"?>
<svg width="82px" height="58px" viewBox="0 0 82 58" version="1.1" xmlns="http://www.w3.org/2000/svg" xmlns:xlink="http://www.w3.org/1999/xlink">
    <!-- Generator: Sketch 55.2 (78181) - https://sketchapp.com -->
    <title>轮播图管理</title>
    <desc>Created with Sketch.</desc>
    <g id="组件设置" stroke="none" stroke-width="1" fill="none" fill-rule="evenodd">
        <g id="轮播图" transform="translate(-599.000000, -311.000000)" fill-rule="nonzero">
            <g id="Group-10" transform="translate(599.000000, 311.000000)">
                <g id="轮播图管理">
                    <rect id="Rectangle" fill="#000000" opacity="0" x="0" y="0" width="58" height="58"></rect>
                    <path d="M64.8621394,0 L15.1377221,0 C12.8579549,0.0130648739 11.0130649,1.85795486 11,4.13772209 L11,53.8621394 C11,56.1473402 12.8525213,57.9999315 15.1377221,57.9999315 L64.8621394,57.9999315 C65.9614841,58.0062718 67.0176586,57.5723933 67.7950259,56.7950259 C68.5723933,56.0176586 69.0062718,54.9614841 68.9999315,53.8621394 L68.9999315,4.13772209 C68.9999315,1.85252128 67.1473402,0 64.8621394,0 Z M15.1377221,53.3598726 C15.1377221,53.3598726 18.5340027,32.7190971 25.3026462,32.7190971 C32.0712898,32.7190971 31.2580959,38.4832071 36.3525168,38.4832071 C41.4469376,38.4832071 43.5277574,20.7125278 50.3681534,20.7125278 C57.2085494,20.7125278 64.8621394,53.3598726 64.8621394,53.3598726 L15.1377221,53.3598726 Z" id="Shape" fill="#A6C5F6"></path>
                    <path d="M8.18816741,11.0000946 L4.07041846,11.0000946 C1.82776449,11.0135034 0.0129262956,12.8960912 0,15.2224655 L0,40.7776291 C0.0129262956,43.1040034 1.82776449,44.9865912 4.07041846,45 L8.18816741,45 L8.18816741,11.0000946 Z M73.7881674,11.0000946 L77.9295815,11.0000946 C80.1722355,11.0135034 81.9870737,12.8960912 82,15.2224655 L82,40.7776291 C81.9870737,43.1040034 80.1722355,44.9865912 77.9295815,45 L73.7881674,45 L73.7881674,11.0000946 Z M26.6470418,11.000047 C30.0452268,11.000047 32.8,13.857706 32.8,17.3827483 C32.8,20.9077907 30.0452268,23.7654021 26.6470418,23.7654021 C23.2488569,23.7654021 20.4940377,20.9077907 20.4940377,17.3827483 C20.4877633,15.6879619 21.1339897,14.0606968 22.2892661,12.8622929 C23.4445426,11.6638889 25.0132465,10.9935383 26.6470418,11.000047 L26.6470418,11.000047 Z" id="Shape" fill="#4E8CEE"></path>
                    <path d="M27.0000488,26 C24.1668107,26 21.6129843,24.1700655 20.5308725,21.3645767 C19.4487608,18.5590879 20.0517909,15.3313614 22.0584266,13.1883235 C24.0650624,11.0452856 27.0795309,10.4096122 29.6944693,11.5780796 C32.3094077,12.746547 34.0090664,15.488696 33.9999636,18.5243015 C33.9874846,22.6569261 30.8571737,26 27.0000488,26 L27.0000488,26 Z M27.0000488,13.4437297 C25.0821483,13.4437297 23.3530967,14.6815713 22.619148,16.5800508 C21.8851992,18.4785304 22.290892,20.6637749 23.6470525,22.1168083 C25.0032129,23.5698416 27.0427684,24.0045138 28.8146774,23.2181378 C30.5865864,22.4317618 31.7419017,20.579201 31.7419017,18.5243015 C31.7419017,15.7183792 29.6189019,13.4437297 27.0000488,13.4437297 L27.0000488,13.4437297 Z" id="Shape" fill="#FFFFFF"></path>
                </g>
            </g>
        </g>
    </g>
</svg>